<svg xmlns="http://www.w3.org/2000/svg" width="122" height="12" viewBox="0 0 122 12">
  <g fill="#FFF">
    <path d="M89.2138613 3.03216562C89.5796775-.0549225477 94.2390739-.61176502 96.4335705 1.07499862 97.5149834 1.95015134 96.3700287 3.33444008 95.4158998 2.63427782 94.2390739 1.88640911 91.5675129 1.5364282 91.2335678 3.19132074 90.8042098 5.80094354 97.721845 4.30500568 97.6103963 8.53785035 97.4993485 12.5794683 91.6470905 12.6750817 89.4525939 10.861034 88.927823 10.4314756 88.9438588 9.73151375 89.2300975 9.30155439 89.6436202 8.88783126 90.1048493 8.74471192 90.6454555 9.19030616 91.9495654 10.0812942 95.3050524 10.7495854 95.5435847 8.4901439 95.3367231 6.13508911 88.7213624 7.55144941 89.2138613 3.03216562zM75.4814203 3.03216562C75.8472366-.0549225477 80.506633-.61176502 82.7011295 1.07499862 83.7825425 1.95015134 82.6375877 3.33444008 81.6834588 2.63427782 80.506633 1.88640911 77.835072 1.5364282 77.5011268 3.19132074 77.0717688 5.80094354 83.989404 4.30500568 83.8779553 8.53785035 83.7669076 12.5794683 77.9146495 12.6750817 75.720153 10.861034 75.1953821 10.4314756 75.2114179 9.73151375 75.4976565 9.30155439 75.9111792 8.88783126 76.3724084 8.74471192 76.9130146 9.19030616 78.2171244 10.0812942 81.5726115 10.7495854 81.8109433 8.4901439 81.6040817 6.13508911 74.988721 7.55144941 75.4814203 3.03216562zM115.232516 1.20228263C115.662075.359001032 116.807029.327129919 117.204516 1.20228263L117.204516 1.20228263 121.688922 10.1292011C122.340977 11.3703705 120.416684 12.3567714 119.844006 11.1158025L119.844006 11.1158025 119.144445 9.71547797 113.276552 9.71547797 112.592626 11.1158025C112.338258 11.6568096 111.749745 11.7680579 111.177268 11.6568096 110.668533 11.3701701 110.350423 10.7974922 110.668533 10.1292011L110.668533 10.1292011zM103.249178 1.60017043C103.249178.295258806 105.348462.247552359 105.348462 1.60017043L105.348462 1.60017043 105.348462 10.686244C105.348462 12.006991 103.249178 12.0386616 103.249178 10.686244L103.249178 10.686244zM52.9303024.645440159C56.969515.645440159 57.7965604 6.05551155 54.425238 7.40812962L54.425238 7.40812962 56.540157 9.98588131C57.3672024 11.2114158 55.7133121 12.388843 54.7589827 11.1793443L54.7589827 11.1793443 52.3578251 7.7422752 49.8610541 7.7422752 49.8610541 10.6225018C49.8610541 12.0067905 47.7461351 12.054497 47.7461351 10.6541725L47.7461351 10.6541725 47.7461351 1.61600576C47.7461351 1.05916329 48.1754931.645440159 48.700264.645440159L48.700264.645440159zM68.8734761.645440159C70.3365406.645440159 70.30487 2.71405582 68.8734761 2.71405582L68.8734761 2.71405582 64.2934568 2.71405582 64.2934568 5.10098173 68.3009988 5.10098173C69.7163568 5.10098173 69.7163568 7.18543272 68.3009988 7.18543272L68.3009988 7.18543272 64.2934568 7.18543272 64.2934568 9.57215818 69.143679 9.57215818C70.5909082 9.57215818 70.7021564 11.6568096 69.143679 11.6568096L69.143679 11.6570101 63.1645379 11.6570101C62.6082967 11.6570101 62.1787383 11.2270507 62.1787383 10.6704087L62.1787383 10.6704087 62.1787383 1.63204154C62.1787383 1.05916329 62.6082967.645440159 63.1645379.645440159L63.1645379.645440159zM38.4345583.502120372C40.5017709.502120372 42.3623223 1.88660956 42.3627232 4.54393881 42.3627232 7.05814872 40.5019713 8.45827279 38.4347588 8.45827279L38.4347588 8.45827279 35.7790331 8.45827279 35.7790331 10.5587596C35.7790331 11.2593227 35.3336393 11.6570101 34.7611619 11.6570101 34.2361906 11.6570101 33.679749 11.2591223 33.679749 10.5587596L33.679749 10.5587596 33.679749 1.60017043C33.679749 1.07499862 34.0932717.502120372 34.7611619.502120372L34.7611619.502120372zM17.8161529.502521267C18.2771815.502521267 18.5475849.77312506 18.8179882 1.07539952L18.8179882 1.07539952 22.3165946 5.80134443 25.9422845.900208619C26.4670555.247752806 27.7551295.502320819 27.7551295 1.60037088L27.7551295 1.60037088 27.7551295 10.55896C27.7551295 11.2595232 27.3099362 11.6572105 26.8010006 11.6572105 26.2285232 11.6572105 25.7833299 11.2593227 25.7833299 10.55896L25.7833299 10.55896 25.7833299 4.67142326 23.1434395 8.01287899C22.5709622 8.71304125 21.8553655 8.71304125 21.3305946 8.01287899L21.3305946 8.01287899 18.9611076 4.67162371 18.9611076 10.5591605C18.9611076 11.2597236 18.3886302 11.657411 17.8161529 11.657411 17.3072173 11.657411 16.8620239 11.2595232 16.8620239 10.5591605L16.8620239 10.5591605 16.8620239 1.60057133C16.8620239.77312506 17.5615848.502521267 17.8161529.502521267zM116.218516 3.68462143L114.262351 7.61499119 118.015526 7.61499119 116.218516 3.68462143zM38.4345583 2.50699381L35.7788327 2.50699381 35.7788327 6.46923468 38.4345583 6.46923468C39.4999355 6.46923468 40.3428162 5.53054019 40.3428162 4.54373836 40.3428162 3.42985297 39.4999355 2.50699381 38.4345583 2.50699381L38.4345583 2.50699381zM52.9305029 2.57073604L49.8612545 2.57073604 49.8612545 5.91239221 52.9305029 5.91239221C54.9977154 5.91239221 55.1249994 2.57073604 52.9305029 2.57073604L52.9305029 2.57073604zM4.96247267 9.43645539L10.2312288 9.43645539C10.8187397 9.43645539 11.2952028 9.91271807 11.2952028 10.5004294L11.2952028 10.5004294C11.2952028 11.0881408 10.8189401 11.5644034 10.2312288 11.5644034L4.96247267 11.5644034C4.37496177 11.5644034 3.89849865 11.0881408 3.89849865 10.5004294L3.89849865 10.5004294C3.8986991 9.91271807 4.37496177 9.43645539 4.96247267 9.43645539z" />
    <circle cx="1.264" cy="10.5" r="1.064" />
    <path d="M1.26442128 4.99574692L6.53297691 4.99574692C7.12068826 4.99574692 7.59695094 5.47200959 7.59695094 6.05972094L7.59695094 6.05972094C7.59695094 6.64723185 7.12068826 7.12369497 6.53297691 7.12369497L1.26442128 7.12369497C.676910378 7.12369497.200447254 6.64723185.200447254 6.05972094L.200447254 6.05972094C.200447254 5.47200959.67670993 4.99574692 1.26442128 4.99574692zM1.26442128.555038447L10.2312288.555038447C10.8187397.555038447 11.2952028 1.03130112 11.2952028 1.61901247L11.2952028 1.61901247C11.2952028 2.20652338 10.8189401 2.6829865 10.2312288 2.6829865L1.26442128 2.6829865C.676910378 2.6829865.200447254 2.20672382.200447254 1.61901247L.200447254 1.61901247C.200447254 1.03150157.67670993.555038447 1.26442128.555038447z" />
  </g>
</svg>