<?xml version="1.0" encoding="UTF-8"?>
<svg width="304px" height="304px" viewBox="0 0 304 304" version="1.1" xmlns="http://www.w3.org/2000/svg" xmlns:xlink="http://www.w3.org/1999/xlink">
    <title>DBD00DFD-6333-4B4F-BF8E-398CEB41AC8F</title>
    <defs>
        <linearGradient x1="21.7125275%" y1="78.3172112%" x2="77.5133285%" y2="21.8996625%" id="linearGradient-1">
            <stop stop-color="#F3F2F5" offset="0%"></stop>
            <stop stop-color="#2A2A2A" offset="100%"></stop>
        </linearGradient>
    </defs>
    <g id="Project-Page----------✏️-" stroke="none" stroke-width="1" fill="none" fill-rule="evenodd">
        <g id="04-00-O-nas-MVP" transform="translate(-1119.000000, -5012.000000)" stroke="url(#linearGradient-1)">
            <g id="section--footer" transform="translate(0.000000, 4690.000000)">
                <g id="oval" transform="translate(1119.000000, 322.000000)">
                    <path d="M152.300888,1.26121336e-13 L152.300888,20.9904762 M141.69715,0.344967619 L143.161417,21.2847771 M131.14285,1.42887238 L134.064145,22.2152343 M120.690389,3.24621333 L125.054236,23.7785181 M110.389928,5.78837714 L116.176061,25.9660152 M100.291916,9.04305905 L107.470659,28.7675924 M90.4455733,12.993901 L98.9829067,32.1697867 M80.8988876,17.6220114 L90.7535543,36.1551543 M71.6982552,22.9049524 L82.82176,40.7056 M62.88848,28.8166667 L75.2258133,45.7979619 M54.5124114,35.3284914 L68.0049448,51.40792 M46.6112343,42.408941 L61.1923771,57.5083314 M39.2229486,50.0230552 L54.8217676,64.068579 M32.3842514,58.1341371 L48.9247467,71.0570324 M26.1275695,66.7025219 L43.5293981,78.440541 M20.4841714,75.6865181 L38.6626476,86.1817562 M15.4811276,85.0423352 L34.3472229,94.2441257 M11.1424686,94.724301 L30.6049829,102.587044 M7.4901981,104.685223 L27.4535886,111.17128 M4.54161524,114.876823 L24.9088914,119.95507 M2.31112381,125.249086 L22.9824,128.89419 M0.80943619,135.751779 L21.6848267,137.945646 M0.0442971429,146.333585 L21.0217448,147.06608 M0.0188190476,156.942968 L20.9962667,156.210472 M0.733798095,167.528682 L21.6091886,165.334815 M2.18532571,178.038034 L22.8573257,174.39293 M4.36630857,188.420937 L24.7335848,183.34269 M7.26646857,198.626362 L27.229859,192.140305 M10.8714019,208.604872 L30.3331924,200.741406 M15.1637371,218.307032 L34.0298324,209.105242 M20.1222667,227.68688 L38.3007429,217.191642 M25.72296,236.697006 L43.1247886,224.95971 M31.9386019,245.295067 L48.4790971,232.372171 M38.7387924,253.438648 L54.3376114,239.393848 M46.0906705,261.088156 L60.6718133,245.98949 M53.9578286,268.206099 L67.4503619,252.12667 M62.3028457,274.757806 L74.6409029,257.775787 M71.0843924,280.711573 L82.2078971,262.910202 M80.2599086,286.038377 L90.1138514,267.505234 M89.784301,290.712015 L98.3216343,271.53613 M99.6118971,294.709253 L106.79064,274.98472 M109.694347,298.012286 L115.479756,277.834648 M119.982503,300.602872 L124.34635,280.071291 M130.426133,302.470373 L133.347429,281.684011 M140.975078,303.604149 L142.439345,282.665063 M151.577078,304 L151.577078,283.009524 M162.181177,303.655032 L160.71691,282.715223 M172.735044,302.57149 L169.813749,281.785128 M183.187867,300.753425 L178.823295,280.221844 M193.488038,298.211623 L187.702629,278.033985 M203.58605,294.957303 L196.406583,275.23277 M213.432392,291.006099 L204.894335,271.830213 M222.979078,286.377627 L213.125135,267.844484 M232.180072,281.09541 L221.056568,263.294038 M240.989486,275.183333 L228.651429,258.201314 M249.365554,268.671147 L235.873021,252.591718 M257.266731,261.590697 L242.684865,246.49203 M264.654655,253.976583 L249.055836,239.931783 M271.494076,245.865501 L254.952857,232.942606 M277.750396,237.297116 L260.348568,225.559821 M283.393794,228.31312 L265.216042,217.817882 M288.39691,218.958027 L269.531539,209.756236 M292.735497,209.275699 L273.272983,201.412956 M296.387768,199.314777 L276.424377,192.827996 M299.336712,189.123539 L278.969436,184.045291 M301.566842,178.751276 L280.894842,175.106171 M303.068168,168.248221 L282.192777,166.054354 M303.833669,157.666415 L282.856221,156.93392 M303.859147,147.057032 L282.881699,147.789528 M303.14453,136.47168 L282.268415,138.665547 M301.69264,125.961966 L281.02064,129.60707 M299.511295,115.579063 L279.144019,120.65731 M296.611135,105.373638 L276.648469,111.859695 M293.006202,95.3954895 L273.544411,103.258232 M288.714229,85.6929676 L269.848857,94.8940343 M283.755699,76.3134819 L265.577947,86.80872 M278.155368,67.3026324 L260.752815,79.0406514 M271.939364,58.7045714 L255.398145,71.6274667 M265.138811,50.5609905 L249.539992,64.6065143 M257.787657,42.9118438 L243.20579,58.0112343 M249.919775,35.793901 L236.427242,51.8733295 M241.575482,29.2421943 L229.237425,46.2234895 M232.793573,23.2884267 L221.670792,41.0890743 M223.618057,17.9619848 L213.764114,36.4951276 M214.093303,13.2883467 L205.55597,32.4642324 M204.266069,9.29038476 L197.087326,29.0149181 M194.183619,5.98800381 L188.39821,26.1649181 M183.895463,3.39676571 L179.531615,23.9283467 M173.451832,1.52962667 L170.530537,22.3159886 M162.902888,0.395489524 L161.439345,21.3345752" id="Combined-Shape"></path>
                </g>
            </g>
        </g>
    </g>
</svg>