<svg xmlns="http://www.w3.org/2000/svg" width="88" height="105" fill="none" viewBox="0 0 88 105">
  <path fill="#fff" fill-rule="evenodd" d="M43.912 44.79c-4.132 0-7.493 3.362-7.493 7.495 0 4.132 3.361 7.494 7.493 7.494 4.133 0 7.495-3.362 7.495-7.494 0-4.133-3.362-7.494-7.495-7.494zm0 15.36c-4.337 0-7.866-3.528-7.866-7.865 0-4.338 3.529-7.866 7.866-7.866 4.338 0 7.867 3.528 7.867 7.866 0 4.337-3.53 7.866-7.867 7.866z" clip-rule="evenodd"/>
  <path fill="#fff" fill-rule="evenodd" d="M40.023 54.294l2.071 2.071-9.964 7.894 7.893-9.965zM47.844 54.294l-2.07 2.071 9.964 7.894-7.894-9.965zM47.844 51.04l-2.07-2.072 9.964-7.894-7.894 9.965zM40.023 51.04l2.071-2.072-9.964-7.894 7.893 9.965z" clip-rule="evenodd"/>
  <mask id="a" width="64" height="65" x="12" y="20" maskUnits="userSpaceOnUse" style="mask-type:alpha">
    <path fill="#fff" fill-rule="evenodd" d="M12 20.372h63.826v63.826H12V20.372z" clip-rule="evenodd"/>
  </mask>
  <g mask="url(#a)">
    <path fill="#fff" fill-rule="evenodd" d="M43.913 21.488c-16.981 0-30.797 13.816-30.797 30.797 0 16.98 13.816 30.796 30.797 30.796 16.982 0 30.797-13.815 30.797-30.796S60.895 21.488 43.914 21.488zm0 62.71C26.316 84.198 12 69.882 12 52.285s14.316-31.913 31.913-31.913 31.913 14.316 31.913 31.913S61.51 84.198 43.914 84.198z" clip-rule="evenodd"/>
  </g>
  <path fill="#fff" fill-rule="evenodd" d="M43.913 23.498c-15.873 0-28.786 12.914-28.786 28.787S28.04 81.072 43.913 81.072c15.874 0 28.788-12.914 28.788-28.787S59.787 23.498 43.914 23.498zm0 57.946c-16.078 0-29.158-13.08-29.158-29.16 0-16.078 13.08-29.158 29.158-29.158 16.079 0 29.16 13.08 29.16 29.159 0 16.078-13.081 29.159-29.16 29.159z" clip-rule="evenodd"/>
  <path fill="#fff" fill-rule="evenodd" d="M44 8.561C20.047 8.561.561 28.048.561 52S20.047 95.439 44 95.439 87.439 75.952 87.439 52 67.953 8.561 44 8.561zM44 96C19.738 96 0 76.262 0 52S19.738 8 44 8s44 19.738 44 44-19.738 44-44 44z" clip-rule="evenodd"/>
  <path fill="#fff" fill-rule="evenodd" d="M43.913 33.569c-10.32 0-18.716 8.395-18.716 18.716C25.197 62.605 33.593 71 43.913 71S62.63 62.605 62.63 52.285s-8.396-18.716-18.715-18.716zm0 38.176c-10.73 0-19.46-8.73-19.46-19.46s8.73-19.46 19.46-19.46 19.46 8.73 19.46 19.46-8.73 19.46-19.46 19.46z" clip-rule="evenodd"/>
  <path fill="#fff" fill-rule="evenodd" d="M43.913 29.462c-12.584 0-22.822 10.239-22.822 22.823s10.238 22.823 22.822 22.823c12.585 0 22.823-10.239 22.823-22.823S56.498 29.462 43.913 29.462zm0 46.39c-12.994 0-23.566-10.572-23.566-23.567 0-12.995 10.572-23.567 23.566-23.567 12.995 0 23.567 10.572 23.567 23.567 0 12.995-10.572 23.567-23.567 23.567z" clip-rule="evenodd"/>
  <path fill="#fff" fill-rule="evenodd" d="M50.167 33.966a19.454 19.454 0 00-6.615-1.03l-.078-4.091a23.392 23.392 0 018.016 1.248l-1.323 3.873zm-16.206 1.72l-2.108-3.51a23.263 23.263 0 017.576-2.907l.779 4.019a19.172 19.172 0 00-6.247 2.397zm24.498 3.836a19.375 19.375 0 00-5.22-4.197l1.976-3.585a23.448 23.448 0 016.32 5.082l-3.076 2.7zm-31.447 3.33l-3.572-1.997a23.454 23.454 0 015.12-6.288l2.682 3.092a19.37 19.37 0 00-4.23 5.194zm35.875 5.608a19.18 19.18 0 00-2.436-6.23l3.494-2.13a23.269 23.269 0 012.955 7.556l-4.013.804zM20.47 52.577c-.002-.1-.002-.2-.002-.3 0-2.636.437-5.232 1.3-7.707l3.865 1.346a19.305 19.305 0 00-1.07 6.61l-4.093.051zm45.489 7.699l-3.848-1.395a19.31 19.31 0 001.147-7.08l4.091-.101a23.372 23.372 0 01-1.39 8.576zm-42.23 3.943a23.257 23.257 0 01-2.86-7.594l4.024-.753a19.158 19.158 0 002.358 6.26L23.73 64.22zm35.314 5.974l-2.643-3.126a19.376 19.376 0 004.294-5.14l3.547 2.043a23.458 23.458 0 01-5.198 6.223zm-26.688 2.493a23.467 23.467 0 01-6.256-5.159l3.11-2.662a19.378 19.378 0 005.166 4.262l-2.02 3.56zm15.755 2.668l-.729-4.028c2.216-.4 4.328-1.18 6.275-2.318l2.065 3.534a23.241 23.241 0 01-7.611 2.812zm-4.197.375c-2.695 0-5.337-.454-7.854-1.349l1.37-3.856a19.301 19.301 0 006.484 1.112h.117l.033 4.092h-.15zM47.795 54.953l14.411-2.668-14.41-2.669-1.214-1.213-2.669-14.412-2.67 14.412-1.212 1.212-14.411 2.67 14.41 2.67 1.214 1.212 2.67 14.411 2.668-14.41 1.213-1.215z" clip-rule="evenodd"/>
  <path fill="#fff" fill-rule="evenodd" d="M26.637 52.285h17.327l-3.843 2.491-13.484-2.491zM43.964 69.585V52.257l2.492 3.843-2.492 13.485zM61.312 52.285H43.984l3.842-2.491 13.486 2.49zM43.913 34.78l.07 17.477-2.49-3.843 2.42-13.635z" clip-rule="evenodd"/>
  <path fill="#fff" d="M48.641 5.2h-2.82v.192c1.044.132 1.32.3 1.356 1.14.012.336.048.648.048 1.896v2.208L42.57 5.2h-2.292v.192c.528.084.744.168 1.056.588.12.156.192.384.192.636V9.76c0 .996-.036 1.464-.06 1.896-.048.84-.144 1.02-1.044 1.152V13h2.772v-.192c-1.116-.156-1.188-.372-1.236-1.188-.024-.396-.036-.744-.036-1.86V6.688l5.388 6.48h.3v-4.74c0-1.248.024-1.548.036-1.92.024-.816.204-.948.996-1.116V5.2zM46.12 93.868a47.983 47.983 0 01-.204-1.68c-.252-.012-.792-.156-1.524-.156-1.596 0-2.568.96-2.568 2.196 0 1.224.876 1.836 1.956 2.496.852.516 1.296 1.056 1.296 1.812 0 .804-.36 1.368-1.188 1.368-1.104 0-1.812-.84-2.076-1.884l-.192.036c.012.192.192 1.608.264 1.836.66.168 1.224.288 1.812.288 1.596 0 2.76-.984 2.76-2.364 0-1.26-.924-1.908-1.956-2.52-1.032-.612-1.452-.972-1.452-1.728 0-.768.408-1.26 1.128-1.26.924 0 1.5.6 1.752 1.596l.192-.036z"/>
</svg>
