<svg xmlns="http://www.w3.org/2000/svg" xmlns:xlink="http://www.w3.org/1999/xlink" width="116" height="83" viewBox="0 0 116 83">
<defs>
<polygon id="logo-placeholder-a" points=".582 .942 15.324 .942 15.324 17 .582 17"></polygon>
<polygon id="logo-placeholder-c" points=".132 .178 3.259 .178 3.259 4.378 .132 4.378"></polygon>
</defs>
<g fill="none" fill-rule="evenodd">
<path fill="#FFF" d="M30.2021 44.7764C32.7761 44.6314 32.7771 44.6314 33.6111 46.8834 34.5261 49.3534 35.4371 51.8244 36.3571 54.2924 36.5041 54.6864 36.6861 55.0674 36.9821 55.7604 37.9511 53.1394 38.8821 50.8194 39.6311 48.4404 39.8001 47.9014 39.3501 47.1574 39.1551 46.5164 38.9821 45.9514 38.7671 45.3974 38.5751 44.8534 38.6811 44.7944 38.7111 44.7634 38.7441 44.7604 41.1301 44.5654 41.1291 44.5654 41.9511 46.7794 42.9101 49.3614 43.8681 51.9424 44.8301 54.5224 44.9491 54.8394 45.0931 55.1484 45.3321 55.7154 45.9021 54.2114 46.3841 52.9544 46.8551 51.6924 47.5381 49.8604 48.2881 48.0474 48.8641 46.1824 49.2141 45.0474 49.7381 44.4754 50.9631 44.7124 51.2701 44.7714 51.5991 44.7204 52.0241 44.7204 51.9391 45.0694 51.8981 45.3634 51.7971 45.6344 50.2071 49.9404 48.5701 54.2284 47.0421 58.5544 46.6961 59.5354 46.1121 59.5494 45.3191 59.5404 44.5461 59.5304 43.9151 59.5834 43.5921 58.5734 42.9071 56.4304 42.0481 54.3434 41.1351 51.8984 40.2421 54.2654 39.3951 56.2804 38.7341 58.3534 38.4091 59.3714 37.8701 59.5424 36.9261 59.5624 35.9421 59.5834 35.4701 59.2944 35.1291 58.3364 33.6601 54.1994 32.0981 50.0954 30.5761 45.9784 30.4391 45.6114 30.3411 45.2284 30.2021 44.7764M2.6542 51.9854L2.6542 54.1444C2.6542 57.4754 2.6612 57.4814 6.0572 57.1744 8.4262 56.9614 9.9932 55.6124 10.5242 53.3324 11.0882 50.9024 10.3932 48.8504 8.5802 47.7314 7.0432 46.7824 5.3692 46.6284 3.6152 46.9474 2.9062 47.0764 2.6012 47.3834 2.6372 48.1484 2.6992 49.4244 2.6542 50.7064 2.6542 51.9854M2.6662 59.5504L2.6662 64.7264.0862 64.7264C.0652 64.3624.0252 63.9814.0242 63.6004.0202 58.0104.0432 52.4214.0000774883733 46.8324-.0068 45.9234.2852 45.4574 1.1262 45.1634 3.0302 44.4964 4.9392 44.0284 6.9782 44.3874 10.9482 45.0874 13.4492 48.2994 13.1502 52.3534 12.8332 56.6634 9.9002 59.6524 5.8372 59.7484 4.8462 59.7714 3.8532 59.6304 2.6662 59.5504"></path>
<g transform="translate(79 65.822)">
<path fill="#FFF" d="M5.3412,7.6982 C6.4892,7.6982 7.6442,7.7302 8.7952,7.6882 C9.7062,7.6542 10.6362,7.6242 11.5182,7.4202 C12.4262,7.2112 12.9162,6.4952 12.9002,5.5492 C12.8832,4.6592 12.4232,3.9832 11.5422,3.7952 C10.7762,3.6312 9.9542,3.5162 9.1852,3.6102 C6.8612,3.8932 5.2902,5.5722 5.3412,7.6982 M14.9012,12.3772 C15.1702,15.5042 15.2552,15.0492 12.9642,16.1782 C10.9932,17.1512 8.8932,17.2482 6.7932,16.5332 C3.8782,15.5422 2.7072,13.2822 2.4382,10.2842 C1.8092,10.3222 1.2262,10.3572 0.5822,10.3972 L0.5822,8.0012 C0.7952,7.9582 1.0172,7.8822 1.2402,7.8752 C2.1642,7.8482 2.5432,7.4882 2.7202,6.4712 C3.4772,2.1232 8.8042,-0.3798 12.7462,1.6672 C14.4222,2.5362 15.5002,4.3942 15.3002,6.0662 C15.0742,7.9572 13.5562,9.6192 11.6122,9.9832 C10.6762,10.1592 9.7122,10.2172 8.7582,10.2552 C7.6472,10.3002 6.5322,10.2652 5.4442,10.2652 C4.9012,12.4272 6.4892,14.2452 8.9012,14.4162 C11.1382,14.5752 13.0272,13.7272 14.9012,12.3772"></path>
</g>
<path fill="#FFF" d="M57.0351 50.7168C58.9301 50.7168 60.4041 50.7358 61.8761 50.7068 62.4291 50.6958 62.9931 50.6278 63.5271 50.4878 64.4871 50.2378 65.0341 49.5708 65.0191 48.5708 65.0041 47.6228 64.4711 46.9998 63.5511 46.7628 61.6291 46.2668 59.8521 46.5988 58.4811 48.0538 57.8771 48.6948 57.5991 49.6448 57.0351 50.7168M57.4961 53.2878C57.1611 55.5908 58.6401 57.2668 60.9791 57.4328 62.7591 57.5588 64.3731 57.0958 65.8731 56.1658 66.2351 55.9418 66.5971 55.7168 66.9841 55.4768 67.4401 57.9188 67.3191 58.1528 65.2351 59.1438 63.3581 60.0348 61.4001 60.2588 59.4061 59.7148 56.8211 59.0108 55.2441 57.3138 54.7611 54.6478 54.6841 54.2238 54.5981 53.8018 54.5011 53.2978 53.8991 53.3428 53.3521 53.3828 52.7231 53.4298L52.7231 51.0098C53.0561 50.9498 53.3631 50.8608 53.6741 50.8468 54.3801 50.8148 54.6721 50.5118 54.7901 49.7698 55.6161 44.5678 61.1741 43.0558 64.6151 44.5668 66.4151 45.3578 67.6131 47.2928 67.4261 49.0478 67.2161 51.0168 65.6061 52.7398 63.5351 53.0308 62.1991 53.2188 60.8341 53.2218 59.4811 53.2818 58.8121 53.3128 58.1411 53.2878 57.4961 53.2878M18.4052 69.0069C20.7232 66.6259 24.0502 66.1519 26.6682 67.6209 28.3782 68.5809 28.9442 70.2349 29.2112 72.0129 29.3522 72.9549 29.3392 73.9249 29.3452 74.8829 29.3622 77.3139 29.3512 79.7429 29.3512 82.2499L26.8792 82.2499C26.8532 81.8509 26.8002 81.4289 26.8032 81.0069 26.8212 78.5699 26.8382 76.1329 26.8812 73.6959 26.9232 71.3539 25.2862 69.4429 23.1412 69.3709 20.8822 69.2949 18.5612 71.3749 18.4922 73.6559 18.4202 76.0519 18.4672 78.4509 18.4632 80.8499 18.4622 81.2839 18.4632 81.7179 18.4632 82.2389L15.9592 82.2389 15.9592 63.0499 18.4052 63.0499 18.4052 69.0069zM22.3207 57.1954029C25.1957 57.1984 27.5497 54.8474 27.5987 51.9264 27.6487 48.9894 25.2467 46.5604 22.2997 46.5693751 19.3867 46.5774 17.0547 48.9114 17.045668 51.8284 17.0357 54.8204 19.3677 57.1934 22.3207 57.1954029M14.4246244 51.8304C14.4427 47.5274 18.0077 43.9984 22.3297 44.0033947 26.5977 44.0074 30.2277 47.6214 30.2377249 51.8764 30.2487 56.1164 26.6127 59.7494 22.3427 59.7614354 17.9717 59.7744 14.4057 56.2024 14.4246244 51.8304M38.6073 79.9952444C41.5373 80.0072 43.9403 77.5852 43.9193 74.6412 43.9003 71.7302 41.5433 69.3712 38.6533 69.3691987 35.7313 69.3672 33.3843 71.6862 33.3653 74.5942 33.3463 77.5932 35.6673 79.9832 38.6073 79.9952444M30.7442948 74.7092C30.7393 70.3392 34.3233 66.7712 38.6903 66.8032 42.9623 66.8342 46.5733 70.4652 46.5583466 74.7172 46.5433 78.9612 42.8853 82.5762 38.6233 82.5612465 34.2943 82.5472 30.7503 79.0142 30.7442948 74.7092M62.1137 82.2666L59.7127 82.2666C59.6607 81.7596 59.6147 81.3066 59.5527 80.7006 57.6507 82.9616 55.2937 83.0606 52.8097 82.5156 50.7107 82.0546 49.3007 80.6436 49.1087 78.5966 48.7587 74.8836 48.7537 71.1386 48.6017 67.3406L51.3027 67.3406C51.3027 68.6516 51.2977 69.9566 51.3047 71.2626 51.3147 72.9406 51.2847 74.6206 51.3627 76.2946 51.4797 78.8006 52.8537 80.2036 55.1087 80.2346 57.3937 80.2646 59.4797 78.4896 59.5687 76.2476 59.6757 73.5356 59.6187 70.8156 59.6367 68.0996 59.6387 67.8676 59.6707 67.6346 59.6927 67.3466L62.1137 67.3466 62.1137 82.2666zM29.5907 39.8042L27.1297 39.8042C27.0987 39.3422 27.0477 38.8862 27.0417 38.4282 27.0117 35.9122 27.0497 33.3942 26.9547 30.8812 26.8577 28.2972 25.4537 26.8932 23.1417 26.8892 20.8147 26.8862 18.7907 28.7432 18.7337 31.0632 18.6677 33.7782 18.7077 36.4952 18.6987 39.2122 18.6977 39.3672 18.6667 39.5212 18.6407 39.7602L16.1987 39.7602 16.1987 24.8912 18.5947 24.8912C18.6427 25.3272 18.6937 25.7842 18.7627 26.4172 20.1207 24.7542 21.8537 24.2222 23.7907 24.3512 27.3337 24.5872 28.9657 26.1082 29.4737 29.6372 29.6037 30.5412 29.5807 31.4712 29.5867 32.3882 29.5997 34.8192 29.5907 37.2502 29.5907 39.8042M44.3207 24.8438L46.7757 24.8438 46.7757 39.7608 44.3617 39.7608C44.3137 39.3148 44.2647 38.8568 44.1957 38.2178 42.8427 39.9078 41.0987 40.4198 39.1637 40.2918 35.6167 40.0578 33.8077 38.5408 33.5267 34.9998 33.2617 31.6738 33.4697 28.3088 33.4697 24.8808L35.9437 24.8808C35.9437 26.7848 35.9387 28.6538 35.9457 30.5218 35.9487 31.6008 35.9357 32.6808 35.9937 33.7568 36.1317 36.3378 37.4967 37.7488 39.8107 37.7548 42.1407 37.7598 44.1457 35.9328 44.2217 33.5878 44.3057 30.9928 44.2607 28.3948 44.2757 25.7988 44.2777 25.5238 44.3007 25.2488 44.3207 24.8438M76.8071 72.4151L74.8121 72.4151C74.3101 69.5761 71.5501 68.1851 69.0691 69.5791 68.5261 69.8851 67.9211 70.6451 67.9221 71.1951 67.9221 71.7281 68.5601 72.4861 69.1061 72.7441 70.1371 73.2281 71.3051 73.4171 72.4121 73.7431 73.2901 74.0011 74.1961 74.2021 75.0311 74.5621 78.5001 76.0611 77.7591 80.1301 75.6651 81.6031 73.1021 83.4091 68.5001 83.0741 66.3351 80.8201 65.3721 79.8181 64.9161 78.6421 65.1851 77.1791L67.3271 77.1791C68.0191 80.0451 71.9011 81.3191 74.2371 79.4751 75.3721 78.5791 75.2441 77.1761 73.8731 76.6451 72.6931 76.1881 71.4141 75.9871 70.1931 75.6261 69.3191 75.3671 68.4091 75.1391 67.6171 74.7081 65.0381 73.3091 64.7921 69.8121 67.0921 67.9931 69.4371 66.1401 73.8021 66.5471 75.7591 68.8101 76.6381 69.8261 77.0271 70.9961 76.8071 72.4151M70.2026 44.5323L72.5626 44.5323C72.6236 44.8993 72.6806 45.2393 72.7216 45.4883 73.6646 45.0653 74.5726 44.5113 75.5586 44.2583 76.5846 43.9943 77.6856 44.0233 78.8666 43.9143L78.8666 46.5703C78.3856 46.5703 77.8466 46.5563 77.3076 46.5733 74.6006 46.6523 72.7356 48.5163 72.7106 51.2123 72.6846 53.9243 72.7046 56.6353 72.7046 59.4363L70.2026 59.4363 70.2026 44.5323zM108.5092 20.9004C107.3682 21.1704 106.5722 21.3864 105.7622 21.5304 105.5472 21.5694 105.2362 21.4444 105.0782 21.2854 104.9952 21.2014 105.0812 20.8334 105.2012 20.6804 105.9542 19.7194 106.7382 18.7834 107.5132 17.8394L107.9052 18.1094C107.2882 18.9744 106.6712 19.8394 105.9022 20.9194 106.8822 20.6944 107.6542 20.4924 108.4352 20.3544 108.7052 20.3064 109.0032 20.4194 109.2882 20.4584 109.1922 20.7314 109.1502 21.0444 108.9872 21.2694 108.5282 21.9054 108.0182 22.5054 107.3532 23.3384 108.6672 23.0704 109.7022 22.8604 110.7382 22.6504L110.8462 23.1054C109.5932 23.4114 108.3412 23.7254 107.0782 23.9844523 107.0462 23.9914 106.7132 23.2934 106.8242 23.1104 107.2492 22.4194 107.8002 21.8054 108.5092 20.9004M85.9067 6.9004C86.3857 5.6704 86.8627 4.4404 87.3407 3.2104 87.4737 3.2124 87.6067 3.2134 87.7397 3.2154 87.9547 4.2654 88.1707 5.3144 88.4187 6.5244 89.3877 5.8324 90.2747 5.1994 91.1617 4.5664L91.4637 4.8444C90.9697 6.0594 90.4757 7.2754 89.9827 8.4914 89.8407 8.4404 89.6977 8.3894 89.5537 8.3384 89.7907 7.5924 90.0267 6.8464 90.3577 5.8024 89.5047 6.4024 88.8607 6.8544 88.0747 7.4074 87.8797 6.5094 87.7167 5.7634 87.4987 4.7654 87.0387 5.6604 86.6727 6.3734 86.3057 7.0864 86.1727 7.0244 86.0397 6.9624 85.9067 6.9004M114.0229 55.3028C112.7539 54.9728 111.4849 54.6418 110.2149 54.3118 110.1929 54.1838 110.1699 54.0548 110.1479 53.9268 111.2169 53.3988 112.2869 52.8688 113.5599 52.2398 112.5579 51.9058 111.7489 51.6358 110.9389 51.3648 110.9819 51.2128 111.0249 51.0608 111.0689 50.9078 112.3509 51.2228 113.6339 51.5378 114.9169 51.8528 114.9519 51.9718 114.9869 52.0898 115.0209 52.2088 113.9299 52.7588 112.8389 53.3098 111.5569 53.9568 112.5449 54.2698 113.3479 54.5248 114.1519 54.7798 114.1089 54.9528 114.0659 55.1278 114.0229 55.3028M64.0199 5.8736C65.0069 5.6496 66.0049 5.6266 66.2249 4.5876 66.3279 4.1056 66.0849 3.2086 65.7429 3.0486 65.0859 2.7406 64.2469 2.8246 63.2789 2.7246 63.5719 3.9666 63.7769 4.8376 64.0199 5.8736M63.5229 6.5326C63.2119 5.2046 62.9169 3.9486 62.6059 2.6196 63.9569 2.3206 65.2369 1.5876 66.3079 2.6896 66.7439 3.1376 66.9989 4.1186 66.8349 4.7196 66.4059 6.2916 64.8469 6.1446 63.5229 6.5326M50.3183 12.3116C51.2763 12.3196 52.0593 11.6046 52.0893 10.8416 52.1213 10.0456 51.2673 9.1146 50.5003 9.2136 49.6313 9.3256 48.9723 9.8006 48.9923 10.7626 49.0113 11.6726 49.5393 12.2206 50.3183 12.3116M50.4033 12.9546177C49.3643 12.9506 48.3393 11.9226 48.3223 10.8676 48.3033 9.6996 49.4333 8.6506 50.6843 8.6756 51.8443 8.6986 52.6943 9.5926 52.6643 10.7546 52.6333 11.9066 51.5513 12.9596 50.4033 12.9546177M70.1459 3.9224C70.8979 3.5374 71.4789 3.2924 71.9819 2.9374 72.0799 2.8694 71.9469 2.1624 71.7999 2.1144 71.2259 1.9254 70.6049 1.8824 69.8339 1.7584 69.9509 2.5674 70.0179 3.0334 70.1459 3.9224M72.0299 4.0084C72.2869 4.4054 72.4909 4.7204 72.7449 5.1134 71.7469 5.3344 70.6409 2.3354 69.8289 5.3034 69.1489 4.1704 69.5929 2.8314 69.2089 1.6654 70.4199 1.0744 71.7809 1.1204 72.3499 1.7474 72.8949 2.3474 72.8259 2.8734 72.0299 4.0084M112.7602 28.5059C112.6162 28.1979 112.4752 27.8889 112.3282 27.5819 112.1782 27.2639 112.0242 26.9469 111.8552 26.5979 109.8852 26.9229 111.7022 28.1639 111.1502 29.0739 110.8092 28.3769 110.5392 27.8259 110.2402 27.2149 109.8702 27.3539 109.5512 27.4739 109.1392 27.6289 109.4062 28.4069 109.6502 29.1199 109.8942 29.8329 109.7672 29.8839 109.6392 29.9359 109.5122 29.9869 109.1332 29.1029 108.7542 28.2179 108.3422 27.2559 109.5932 26.7349 110.7622 26.2469 112.0902 25.6929 112.4642 26.6069 112.8222 27.4799 113.1792 28.3519L112.7602 28.5059zM114.6791 34.9839C113.8391 35.1369 113.3241 35.2309 112.5361 35.3749 112.8821 36.0699 113.0991 36.6299 113.4381 37.1039 113.5231 37.2219 114.2171 37.1349 114.2571 37.0149 114.4531 36.4369 114.5231 35.8159 114.6791 34.9839M112.0721 35.4799L111.0191 35.4799C110.9921 35.3499 110.9661 35.2199 110.9401 35.0909 112.1651 34.6359 113.4731 34.5129 114.7721 34.3669 115.3951 36.6209 115.2411 37.4499 114.1861 37.7819 113.2041 38.0909 112.7911 37.6589 112.0721 35.4799"></path>
<g transform="translate(75 .822)">
<path fill="#FFF" d="M0.8988,1.8759 C1.5568,2.0009 2.1478,2.1149 2.7398,2.2279 C2.7348,2.3029 2.7298,2.3779 2.7258,2.4529 L0.9558,2.4529 C0.8898,2.9179 0.8398,3.2769 0.7848,3.6789 C1.5838,3.7959 2.2908,3.8999 2.9978,4.0029 C2.9838,4.1279 2.9698,4.2529 2.9568,4.3779 C2.0698,4.3209 1.1828,4.2649 0.1318,4.1979 C0.1998,2.8649 0.2628,1.6139 0.3358,0.1779 C1.3738,0.2669 2.2828,0.3439 3.2588,0.4279 C2.7508,1.5429 0.7958,-0.1881 0.8988,1.8759"></path>
</g>
<path fill="#FFF" d="M83.0571 4.7217C82.9271 3.9827 82.8281 3.4157 82.6701 2.5217 82.1461 3.2687 81.8191 3.7357 81.4111 4.3177 81.9671 4.4547 82.4051 4.5617 83.0571 4.7217M83.7581 6.4297C82.8211 4.6747 81.5661 4.4097 79.9371 5.3727 80.6741 4.3567 81.3881 3.3217 82.1591 2.3307 82.6351 1.7167 83.0601 1.8897 83.2251 2.5897 83.5031 3.7737 83.7261 4.9707 83.9711 6.1607 83.9011 6.2507 83.8291 6.3407 83.7581 6.4297M54.1972 6.1734C54.4852 6.7084 54.7662 7.2464 55.0632 7.7764 55.4572 8.4804 55.8342 9.3184 56.8652 8.7524 57.8642 8.2024 57.4192 7.4114 57.0752 6.6814 56.8882 6.2864 56.6432 5.9174 56.4822 5.5124 56.4172 5.3484 56.5072 5.1224 56.5262 4.9244 56.6352 4.8914 56.7452 4.8594 56.8562 4.8264 57.2692 5.7734 57.8252 6.6904 58.0302 7.6794 58.1212 8.1184 57.6172 8.9094 57.1692 9.1674 56.7082 9.4324 55.7132 9.4994 55.4302 9.2004 54.6962 8.4234 54.2242 7.3974 53.6482 6.4694 53.8312 6.3714 54.0142 6.2724 54.1972 6.1734M114.9516 47.0528C114.1876 46.6158 113.6966 46.3358 113.0526 45.9668 112.9676 46.5958 112.9056 47.0598 112.8206 47.6898 113.5426 47.4738 114.0556 47.3208 114.9516 47.0528M111.8236 44.6098C112.9396 45.2558 114.0726 45.8738 115.1506 46.5778 115.3076 46.6808 115.2966 47.4348 115.2016 47.4718 113.9736 47.9488 112.7186 48.3508 111.2116 48.8598 112.7636 46.5688 112.7636 46.5688 111.8236 44.6098M100.1215 10.9903C99.7485 10.5693 99.4815 10.2673 99.2165 9.9673L99.4855 9.6713 102.0525 11.8033C101.9795 11.9163 101.9075 12.0283 101.8355 12.1403 101.4805 11.9213 101.1255 11.7023 100.7105 11.4473 99.9305 12.2853 99.1345 13.1393 98.3385 13.9943 98.2225 13.8783 98.1065 13.7613 97.9905 13.6453 98.6955 12.7673 99.3995 11.8893 100.1215 10.9903M110.2514 63.8243L108.4294 66.5933C108.3224 66.5283 108.2174 66.4643 108.1104 66.3993 108.2814 66.0263 108.4534 65.6523 108.6584 65.2033 107.7164 64.5653 106.7844 63.9343 105.8534 63.3033 105.9254 63.1683 105.9974 63.0313 106.0704 62.8943 107.0394 63.4333 108.0084 63.9713 109.0574 64.5543 109.3294 64.2393 109.6164 63.9073 109.9034 63.5743 110.0204 63.6573 110.1354 63.7413 110.2514 63.8243M47.391 16.0215C46.057 15.4855 44.782 14.9745 43.508 14.4625 43.52 14.3735 43.534 14.2835 43.547 14.1935 44.312 14.3235 45.078 14.4535 45.976 14.6055 45.871 13.7635 45.771 12.9615 45.671 12.1595 45.738 12.1545 45.804 12.1495 45.87 12.1445 46.394 13.4795 46.918 14.8155 47.391 16.0215M115.7338 40.7173C114.6368 40.7833 113.5398 40.8503 112.3948 40.9193 112.3458 41.6433 112.3038 42.2873 112.2608 42.9303 112.1438 42.9333 112.0258 42.9353 111.9088 42.9383 111.8588 42.0973 111.8098 41.2573 111.7578 40.3653 113.1878 40.2233 114.4628 39.9483 115.7178 40.2973 115.7238 40.4373 115.7288 40.5773 115.7338 40.7173M95.2348 11.6807C95.0728 10.4527 96.4918 8.4337 97.5458 8.1887 96.6968 9.4727 95.9648 10.5767 95.2348 11.6807M107.7738 59.584C108.6878 59.411 110.6928 60.302 111.5688 61.174 110.9218 61.38 109.1868 60.672 107.7738 59.584"></path>
</g>
</svg>